<?xml version="1.0" encoding="UTF-8" standalone="no"?>
<!-- Created with Inkscape (http://www.inkscape.org/) -->

<svg
   xmlns:dc="http://purl.org/dc/elements/1.1/"
   xmlns:cc="http://creativecommons.org/ns#"
   xmlns:rdf="http://www.w3.org/1999/02/22-rdf-syntax-ns#"
   xmlns:svg="http://www.w3.org/2000/svg"
   xmlns="http://www.w3.org/2000/svg"
   xmlns:sodipodi="http://sodipodi.sourceforge.net/DTD/sodipodi-0.dtd"
   xmlns:inkscape="http://www.inkscape.org/namespaces/inkscape"
   width="77.378052mm"
   height="149.28122mm"
   viewBox="0 0 77.378052 149.28122"
   version="1.1"
   id="svg8"
   inkscape:version="0.92.1 r15371"
   sodipodi:docname="FX13_alienmmm.svg">
  <defs
     id="defs2" />
  <sodipodi:namedview
     id="base"
     pagecolor="#ffffff"
     bordercolor="#666666"
     borderopacity="1.0"
     inkscape:pageopacity="0.0"
     inkscape:pageshadow="2"
     inkscape:zoom="0.7"
     inkscape:cx="76.264815"
     inkscape:cy="401.66282"
     inkscape:document-units="mm"
     inkscape:current-layer="layer1"
     showgrid="false"
     inkscape:window-width="1920"
     inkscape:window-height="1016"
     inkscape:window-x="0"
     inkscape:window-y="27"
     inkscape:window-maximized="1"
     inkscape:snap-global="false"
     fit-margin-top="0"
     fit-margin-left="0"
     fit-margin-right="0"
     fit-margin-bottom="0" />
  <metadata
     id="metadata5">
    <rdf:RDF>
      <cc:Work
         rdf:about="">
        <dc:format>image/svg+xml</dc:format>
        <dc:type
           rdf:resource="http://purl.org/dc/dcmitype/StillImage" />
        <dc:title></dc:title>
      </cc:Work>
    </rdf:RDF>
  </metadata>
  <g
     inkscape:label="Layer 1"
     inkscape:groupmode="layer"
     id="layer1"
     transform="translate(-95.662933,-104.42113)">
    <ellipse
       style="opacity:1;fill:#005522;fill-opacity:0.97647059;stroke:none;stroke-width:1.13683653;stroke-linecap:round;stroke-linejoin:round;stroke-miterlimit:4;stroke-dasharray:none;stroke-opacity:1"
       id="path4536-6"
       cx="250.22784"
       cy="-139.51469"
       rx="3.4745035"
       ry="33.526291"
       transform="rotate(90)" />
    <path
       style="opacity:1;fill:#49af00;fill-opacity:0.97647059;stroke:none;stroke-width:0.8301121;stroke-linecap:round;stroke-linejoin:round;stroke-miterlimit:4;stroke-dasharray:none;stroke-opacity:1"
       d="m 163.66369,154.03051 c 0,20.50973 -13.11499,37.13616 -29.29315,37.13616 -16.17816,0 -29.29315,-16.62643 -29.29315,-37.13616 0,-20.50974 17.46171,-49.60938 29.29315,-49.60938 11.83144,0 29.29315,29.09964 29.29315,49.60938 z"
       id="path4485"
       inkscape:connector-curvature="0"
       sodipodi:nodetypes="ssszs" />
    <path
       style="fill:#49af00;fill-opacity:0.97647059;stroke:none;stroke-width:0.26458332px;stroke-linecap:butt;stroke-linejoin:miter;stroke-opacity:1"
       d="m 135.31547,187.3869 c 0,0 -15.30803,0.37798 -19.65476,10.20536 -4.34672,9.82738 -13.98512,19.84375 -11.52827,20.03274 2.45684,0.18899 3.40178,0.56696 4.53571,0.37797 1.13393,-0.18898 9.07143,-20.5997 13.60715,-21.92262 4.53571,-1.32291 -0.56697,14.17411 -2.26786,25.5134 -1.70089,11.33928 -0.56697,28.34821 -0.56697,28.34821 h 5.57515 c 0,0 2.20467,-26.44108 14.76634,-22.96658 12.56167,3.4745 13.36348,22.45064 13.36348,22.45064 h 5.87993 c 0,0 -0.53454,-25.3906 -2.6727,-34.47777 -2.13815,-9.08716 -11.49259,-16.57071 -6.1472,-18.17433 5.34539,-1.60361 16.03617,21.64884 16.03617,21.64884 l 5.87993,-1.06908 c 0,0 -11.33839,-30.80118 -36.8061,-29.96678 z"
       id="path4499"
       inkscape:connector-curvature="0" />
    <ellipse
       style="opacity:1;fill:#005522;fill-opacity:0.97647059;stroke:none;stroke-width:0.50179994;stroke-linecap:round;stroke-linejoin:round;stroke-miterlimit:4;stroke-dasharray:none;stroke-opacity:1"
       id="path4536"
       cx="118.42725"
       cy="156.41623"
       rx="3.4745035"
       ry="6.5320668" />
    <ellipse
       style="opacity:1;fill:#005522;fill-opacity:0.97647059;stroke:none;stroke-width:0.50179994;stroke-linecap:round;stroke-linejoin:round;stroke-miterlimit:4;stroke-dasharray:none;stroke-opacity:1"
       id="path4536-3"
       cx="148.09418"
       cy="156.41623"
       rx="3.4745035"
       ry="6.5320673" />
    <ellipse
       style="opacity:1;fill:#005522;fill-opacity:0.97647059;stroke:none;stroke-width:0.26359296;stroke-linecap:round;stroke-linejoin:round;stroke-miterlimit:4;stroke-dasharray:none;stroke-opacity:1"
       id="path4536-7"
       cx="174.18965"
       cy="-134.3298"
       rx="1.469982"
       ry="4.2602763"
       transform="rotate(90)" />
    <path
       style="fill:#49af00;fill-opacity:0.97647059;stroke:none;stroke-width:0.26458332px;stroke-linecap:butt;stroke-linejoin:miter;stroke-opacity:1"
       d="m 158.78496,136.74899 c 0,0 5.24632,-1.46036 8.01809,-9.6217 2.40542,-7.08265 -0.25478,-13.23692 2.13815,-13.09621 2.39293,0.14071 4.27632,13.63075 1.60362,22.71791 -2.67269,9.08717 -10.42351,13.36348 -10.42351,13.36348 z"
       id="path4565"
       inkscape:connector-curvature="0"
       sodipodi:nodetypes="cszccc" />
    <path
       style="fill:#49af00;fill-opacity:0.97647059;stroke:none;stroke-width:0.26458332px;stroke-linecap:butt;stroke-linejoin:miter;stroke-opacity:1"
       d="m 108.72837,136.74899 c 0,0 -5.24632,-1.46036 -8.01809,-9.6217 -2.405423,-7.08265 0.25478,-13.23692 -2.138153,-13.09621 -2.392933,0.14071 -4.276323,13.63075 -1.603622,22.71791 2.672692,9.08717 10.423515,13.36348 10.423515,13.36348 z"
       id="path4565-5"
       inkscape:connector-curvature="0"
       sodipodi:nodetypes="cszccc" />
  </g>
</svg>
